<svg aria-hidden="true" version="1.1" xmlns="http://www.w3.org/2000/svg"
	xmlns:xlink="http://www.w3.org/1999/xlink" viewBox="0 0 24 24">
	<defs>
		<symbol id="chat" viewBox="0 0 24 24">
			<path
				d="M21 15C21 15.5304 20.7893 16.0391 20.4142 16.4142C20.0391 16.7893 19.5304 17 19 17H7L3 21V5C3 4.46957 3.21071 3.96086 3.58579 3.58579C3.96086 3.21071 4.46957 3 5 3H19C19.5304 3 20.0391 3.21071 20.4142 3.58579C20.7893 3.96086 21 4.46957 21 5V15Z"
				stroke-width="2" stroke-linecap="round" stroke-linejoin="round" />
		</symbol>
		<symbol id="arrowDown" viewBox="0 0 24 24" stroke-width="1.5">
			<path stroke-linecap="round" stroke-linejoin="round"
				d="M19.5 13.5L12 21m0 0l-7.5-7.5M12 21V3" />
		</symbol>
		<symbol id="chartBarSquare" viewBox="0 0 24 24" stroke-width="1.5">
			<path stroke-linecap="round" stroke-linejoin="round"
				d="M7.5 14.25v2.25m3-4.5v4.5m3-6.75v6.75m3-9v9M6 20.25h12A2.25 2.25 0 0020.25 18V6A2.25 2.25 0 0018 3.75H6A2.25 2.25 0 003.75 6v12A2.25 2.25 0 006 20.25z" />
		</symbol>
		<symbol id="userGroup" viewBox="0 0 24 24" stroke-width="1.5">
			<path stroke-linecap="round" stroke-linejoin="round"
				d="M18 18.72a9.094 9.094 0 003.741-.479 3 3 0 00-4.682-2.72m.94 3.198l.001.031c0 .225-.012.447-.037.666A11.944 11.944 0 0112 21c-2.17 0-4.207-.576-5.963-1.584A6.062 6.062 0 016 18.719m12 0a5.971 5.971 0 00-.941-3.197m0 0A5.995 5.995 0 0012 12.75a5.995 5.995 0 00-5.058 2.772m0 0a3 3 0 00-4.681 2.72 8.986 8.986 0 003.74.477m.94-3.197a5.971 5.971 0 00-.94 3.197M15 6.75a3 3 0 11-6 0 3 3 0 016 0zm6 3a2.25 2.25 0 11-4.5 0 2.25 2.25 0 014.5 0zm-13.5 0a2.25 2.25 0 11-4.5 0 2.25 2.25 0 014.5 0z" />
		</symbol>
		<symbol id="home" viewBox="0 0 24 24" stroke-width="1.5">
			<path stroke-linecap="round" stroke-linejoin="round"
				d="M2.25 12l8.954-8.955c.44-.439 1.152-.439 1.591 0L21.75 12M4.5 9.75v10.125c0 .621.504 1.125 1.125 1.125H9.75v-4.875c0-.621.504-1.125 1.125-1.125h2.25c.621 0 1.125.504 1.125 1.125V21h4.125c.621 0 1.125-.504 1.125-1.125V9.75M8.25 21h8.25" />
		</symbol>
		<symbol id="queueList" viewBox="0 0 24 24" stroke-width="1.5">
			<path stroke-linecap="round" stroke-linejoin="round"
				d="M3.75 12h16.5m-16.5 3.75h16.5M3.75 19.5h16.5M5.625 4.5h12.75a1.875 1.875 0 010 3.75H5.625a1.875 1.875 0 010-3.75z" />
		</symbol>
		<symbol id="bell" viewBox="0 0 24 24" stroke-width="1.5">
			<path stroke-linecap="round" stroke-linejoin="round"
				d="M14.857 17.082a23.848 23.848 0 005.454-1.31A8.967 8.967 0 0118 9.75v-.7V9A6 6 0 006 9v.75a8.967 8.967 0 01-2.312 6.022c1.733.64 3.56 1.085 5.455 1.31m5.714 0a24.255 24.255 0 01-5.714 0m5.714 0a3 3 0 11-5.714 0" />
		</symbol>
		<symbol id="bars3" viewBox="0 0 24 24" stroke-width="1.5">
			<path stroke-linecap="round" stroke-linejoin="round"
				d="M3.75 6.75h16.5M3.75 12h16.5m-16.5 5.25h16.5" />
		</symbol>
		<symbol id="xMark" viewBox="0 0 24 24" stroke-width="1.5">
			<path stroke-linecap="round" stroke-linejoin="round" d="M6 18L18 6M6 6l12 12" />
		</symbol>
		<symbol id="checkCircle" viewBox="0 0 24 24" stroke-width="1.5">
			<path stroke-linecap="round" stroke-linejoin="round"
				d="M9 12.75L11.25 15 15 9.75M21 12a9 9 0 11-18 0 9 9 0 0118 0z" />
		</symbol>
		<symbol id="chevronRight" viewBox="0 0 24 24" stroke-width="1.5">
			<path stroke-linecap="round" stroke-linejoin="round" d="M8.25 4.5l7.5 7.5-7.5 7.5" />
		</symbol>
		<symbol id="chevronLeft" viewBox="0 0 24 24" stroke-width="1.5">
			<path stroke-linecap="round" stroke-linejoin="round" d="M15.75 19.5L8.25 12l7.5-7.5" />
		</symbol>
		<symbol id="wrench" viewBox="0 0 24 24" stroke-width="1.5">
			<path stroke-linecap="round" stroke-linejoin="round"
				d="M21.75 6.75a4.5 4.5 0 01-4.884 4.484c-1.076-.091-2.264.071-2.95.904l-7.152 8.684a2.548 2.548 0 11-3.586-3.586l8.684-7.152c.833-.686.995-1.874.904-2.95a4.5 4.5 0 016.336-4.486l-3.276 3.276a3.004 3.004 0 002.25 2.25l3.276-3.276c.256.565.398 1.192.398 1.852z" />
			<path stroke-linecap="round" stroke-linejoin="round"
				d="M4.867 19.125h.008v.008h-.008v-.008z" />
		</symbol>
		<symbol id="cog" viewBox="0 0 24 24" stroke-width="1.5">
			<path stroke-linecap="round" stroke-linejoin="round"
				d="M10.343 3.94c.09-.542.56-.94 1.11-.94h1.093c.55 0 1.02.398 1.11.94l.149.894c.07.424.384.764.78.93.398.164.855.142 1.205-.108l.737-.527a1.125 1.125 0 011.45.12l.773.774c.39.389.44 1.002.12 1.45l-.527.737c-.25.35-.272.806-.107 1.204.165.397.505.71.93.78l.893.15c.543.09.94.56.94 1.109v1.094c0 .55-.397 1.02-.94 1.11l-.893.149c-.425.07-.765.383-.93.78-.165.398-.143.854.107 1.204l.527.738c.32.447.269 1.06-.12 1.45l-.774.773a1.125 1.125 0 01-1.449.12l-.738-.527c-.35-.25-.806-.272-1.203-.107-.397.165-.71.505-.781.929l-.149.894c-.09.542-.56.94-1.11.94h-1.094c-.55 0-1.019-.398-1.11-.94l-.148-.894c-.071-.424-.384-.764-.781-.93-.398-.164-.854-.142-1.204.108l-.738.527c-.447.32-1.06.269-1.45-.12l-.773-.774a1.125 1.125 0 01-.12-1.45l.527-.737c.25-.35.273-.806.108-1.204-.165-.397-.505-.71-.93-.78l-.894-.15c-.542-.09-.94-.56-.94-1.109v-1.094c0-.55.398-1.02.94-1.11l.894-.149c.424-.07.765-.383.93-.78.165-.398.143-.854-.107-1.204l-.527-.738a1.125 1.125 0 01.12-1.45l.773-.773a1.125 1.125 0 011.45-.12l.737.527c.35.25.807.272 1.204.107.397-.165.71-.505.78-.929l.15-.894z" />
			<path stroke-linecap="round" stroke-linejoin="round"
				d="M15 12a3 3 0 11-6 0 3 3 0 016 0z" />
		</symbol>
		<symbol id="sun" viewBox="0 0 24 24" stroke-width="1.5">
			<path stroke-linecap="round" stroke-linejoin="round"
				d="M12 3v2.25m6.364.386l-1.591 1.591M21 12h-2.25m-.386 6.364l-1.591-1.591M12 18.75V21m-4.773-4.227l-1.591 1.591M5.25 12H3m4.227-4.773L5.636 5.636M15.75 12a3.75 3.75 0 11-7.5 0 3.75 3.75 0 017.5 0z" />
		</symbol>
		<symbol id="archiveBox" viewBox="0 0 24 24" stroke-width="1.5">
			<path stroke-linecap="round" stroke-linejoin="round"
				d="M20.25 7.5l-.625 10.632a2.25 2.25 0 01-2.247 2.118H6.622a2.25 2.25 0 01-2.247-2.118L3.75 7.5M10 11.25h4M3.375 7.5h17.25c.621 0 1.125-.504 1.125-1.125v-1.5c0-.621-.504-1.125-1.125-1.125H3.375c-.621 0-1.125.504-1.125 1.125v1.5c0 .621.504 1.125 1.125 1.125z" />
		</symbol>
		<symbol id="play" viewBox="0 0 24 24" stroke-width="1.5">
  			<path fill-rule="evenodd" d="M4.5 5.653c0-1.427 1.529-2.33 2.779-1.643l11.54 6.347c1.295.712 1.295 2.573 0 3.286L7.28 19.99c-1.25.687-2.779-.217-2.779-1.643V5.653Z" clip-rule="evenodd" />
		</symbol>
	</defs>
</svg>