<svg aria-hidden="true" version="1.1" xmlns="http://www.w3.org/2000/svg" xmlns:xlink="http://www.w3.org/1999/xlink" viewBox="0 0 24 24">
	<defs>
		<symbol id="chat" viewBox="0 0 24 24">
			<path d="M21 15C21 15.5304 20.7893 16.0391 20.4142 16.4142C20.0391 16.7893 19.5304 17 19 17H7L3 21V5C3 4.46957 3.21071 3.96086 3.58579 3.58579C3.96086 3.21071 4.46957 3 5 3H19C19.5304 3 20.0391 3.21071 20.4142 3.58579C20.7893 3.96086 21 4.46957 21 5V15Z" stroke-width="2" stroke-linecap="round" stroke-linejoin="round" />
		</symbol>
		<symbol id="arrow-down" viewBox="0 0 24 24" stroke-width="1.5">
            <path stroke-linecap="round" stroke-linejoin="round" d="M19.5 13.5L12 21m0 0l-7.5-7.5M12 21V3" />
        </symbol>
		<symbol id="teste" viewBox="0 0 24 24" stroke-width="1.5">
            <path stroke-linecap="round" stroke-linejoin="round" d="M7.5 7.5h-.75A2.25 2.25 0 004.5 9.75v7.5a2.25 2.25 0 002.25 2.25h7.5a2.25 2.25 0 002.25-2.25v-7.5a2.25 2.25 0 00-2.25-2.25h-.75m-6 3.75l3 3m0 0l3-3m-3 3V1.5m6 9h.75a2.25 2.25 0 012.25 2.25v7.5a2.25 2.25 0 01-2.25 2.25h-7.5a2.25 2.25 0 01-2.25-2.25v-.75" />
        </symbol>
	</defs>
</svg>
